<svg width="400" height="400" viewBox="0 0 400 400" fill="none" xmlns="http://www.w3.org/2000/svg">
<rect width="400" height="400" fill="white"/>
<path d="M122.5 77.2917C122.508 74.7085 121.999 72.15 121.003 69.7664C120.007 67.3829 118.545 65.2225 116.702 63.4124C114.859 61.6022 112.673 60.1788 110.272 59.226C107.871 58.2731 105.304 57.81 102.721 57.8638C100.139 57.9176 97.593 58.4873 95.2338 59.5394C92.8746 60.5915 90.7496 62.1048 88.9838 63.9901C87.218 65.8755 85.8471 68.0949 84.9516 70.5179C84.0561 72.9408 83.6541 75.5184 83.7694 78.099C79.9732 79.0751 76.4489 80.9022 73.4634 83.442C70.4779 85.9818 68.1095 89.1677 66.5375 92.7584C64.9656 96.3491 64.2314 100.25 64.3904 104.167C64.5495 108.083 65.5977 111.912 67.4556 115.364C64.1889 118.017 61.62 121.429 59.9726 125.302C58.3252 129.176 57.649 133.393 58.003 137.587C58.3569 141.781 59.7303 145.825 62.0035 149.367C64.2768 152.909 67.3811 155.842 71.0465 157.911C70.5938 161.413 70.8639 164.971 71.8401 168.364C72.8163 171.757 74.4777 174.915 76.7219 177.641C78.9661 180.367 81.7454 182.604 84.8881 184.214C88.0308 185.824 91.4701 186.773 94.9938 187.002C98.5175 187.23 102.051 186.734 105.375 185.544C108.699 184.353 111.744 182.494 114.322 180.081C116.9 177.668 118.956 174.752 120.362 171.513C121.769 168.274 122.496 164.781 122.5 161.25V77.2917Z" stroke="black" stroke-width="2" stroke-linecap="round" stroke-linejoin="round"/>
<path d="M122.5 77.2917C122.492 74.7085 123.001 72.15 123.997 69.7664C124.993 67.3829 126.455 65.2225 128.298 63.4124C130.141 61.6022 132.327 60.1788 134.728 59.226C137.129 58.2731 139.696 57.81 142.279 57.8638C144.861 57.9176 147.407 58.4873 149.766 59.5394C152.125 60.5915 154.25 62.1048 156.016 63.9901C157.782 65.8755 159.153 68.0949 160.048 70.5179C160.944 72.9408 161.346 75.5184 161.231 78.099C165.027 79.0751 168.551 80.9022 171.537 83.442C174.522 85.9818 176.891 89.1677 178.462 92.7584C180.034 96.3491 180.769 100.25 180.61 104.167C180.451 108.083 179.402 111.912 177.544 115.364C180.811 118.017 183.38 121.429 185.027 125.302C186.675 129.176 187.351 133.393 186.997 137.587C186.643 141.781 185.27 145.825 182.996 149.367C180.723 152.909 177.619 155.842 173.954 157.911C174.406 161.413 174.136 164.971 173.16 168.364C172.184 171.757 170.522 174.915 168.278 177.641C166.034 180.367 163.255 182.604 160.112 184.214C156.969 185.824 153.53 186.773 150.006 187.002C146.483 187.23 142.949 186.734 139.625 185.544C136.301 184.353 133.256 182.494 130.678 180.081C128.1 177.668 126.044 174.752 124.638 171.513C123.231 168.274 122.504 164.781 122.5 161.25V77.2917Z" stroke="black" stroke-width="2" stroke-linecap="round" stroke-linejoin="round"/>
<path d="M141.875 128.958C136.453 127.051 131.718 123.579 128.269 118.98C124.821 114.382 122.813 108.864 122.5 103.125C122.187 108.864 120.179 114.382 116.731 118.98C113.282 123.579 108.547 127.051 103.125 128.958" stroke="black" stroke-width="2" stroke-linecap="round" stroke-linejoin="round"/>
<path d="M158.66 86.9792C160.223 84.2704 161.107 81.2236 161.237 78.099" stroke="black" stroke-width="2" stroke-linecap="round" stroke-linejoin="round"/>
<path d="M83.7694 78.099C83.8971 81.2231 84.779 84.2699 86.3398 86.9792" stroke="black" stroke-width="2" stroke-linecap="round" stroke-linejoin="round"/>
<path d="M67.4556 115.37C68.6371 114.408 69.9014 113.552 71.2338 112.812" stroke="black" stroke-width="2" stroke-linecap="round" stroke-linejoin="round"/>
<path d="M173.766 112.812C175.099 113.552 176.363 114.408 177.544 115.37" stroke="black" stroke-width="2" stroke-linecap="round" stroke-linejoin="round"/>
<path d="M83.75 161.25C79.2991 161.252 74.9232 160.104 71.0465 157.917" stroke="black" stroke-width="2" stroke-linecap="round" stroke-linejoin="round"/>
<path d="M173.954 157.917C170.077 160.104 165.701 161.252 161.25 161.25" stroke="black" stroke-width="2" stroke-linecap="round" stroke-linejoin="round"/>
<path d="M327.5 313.333C327.5 305.509 321.157 299.167 313.333 299.167C305.509 299.167 299.167 305.509 299.167 313.333V327.5C299.167 335.324 305.509 341.667 313.333 341.667C321.157 341.667 327.5 335.324 327.5 327.5V313.333Z" stroke="black" stroke-width="2" stroke-linecap="round" stroke-linejoin="round"/>
<path d="M270.833 242.5C270.833 234.676 264.491 228.333 256.667 228.333C248.843 228.333 242.5 234.676 242.5 242.5V256.667C242.5 264.491 248.843 270.833 256.667 270.833C264.491 270.833 270.833 264.491 270.833 256.667V242.5Z" stroke="black" stroke-width="2" stroke-linecap="round" stroke-linejoin="round"/>
<path d="M242.5 341.667H270.833" stroke="black" stroke-width="2" stroke-linecap="round" stroke-linejoin="round"/>
<path d="M299.167 270.833H327.5" stroke="black" stroke-width="2" stroke-linecap="round" stroke-linejoin="round"/>
<path d="M242.5 299.167H256.667V341.667" stroke="black" stroke-width="2" stroke-linecap="round" stroke-linejoin="round"/>
<path d="M299.167 228.333H313.333V270.833" stroke="black" stroke-width="2" stroke-linecap="round" stroke-linejoin="round"/>
</svg>
